<?xml version="1.0" standalone="no"?>
<!DOCTYPE svg PUBLIC "-//W3C//DTD SVG 20010904//EN"
 "http://www.w3.org/TR/2001/REC-SVG-20010904/DTD/svg10.dtd">
<svg version="1.0" xmlns="http://www.w3.org/2000/svg"
 width="64.000000pt" height="64.000000pt" viewBox="0 0 64.000000 64.000000"
 preserveAspectRatio="xMidYMid meet">
<metadata>
Created by potrace 1.16, written by Peter Selinger 2001-2019
</metadata>
<g transform="translate(0.000000,64.000000) scale(0.100000,-0.100000)"
fill="#000000" stroke="none">
<path d="M230 561 c0 -17 41 -84 47 -77 3 2 -7 24 -21 48 -14 24 -26 37 -26
29z"/>
<path d="M385 414 c-16 -12 -18 -18 -7 -34 17 -27 17 -25 -33 -60 l-45 -31
-12 26 c-13 30 -16 30 -47 6 -23 -17 -23 -19 -6 -45 13 -19 21 -24 30 -16 9 7
23 -6 52 -52 56 -87 65 -107 59 -124 -9 -22 -36 -17 -36 8 0 20 -1 21 -20 3
-28 -25 -25 -30 13 -29 53 2 57 3 57 21 0 14 3 13 23 -5 13 -12 26 -22 30 -22
10 0 167 121 167 129 0 4 -9 24 -20 46 -11 22 -20 34 -20 28 0 -9 -112 -94
-167 -126 -8 -5 -26 15 -52 55 l-41 63 28 22 c35 29 38 29 57 -7 18 -35 22
-36 55 -10 25 19 25 20 7 51 -17 30 -17 31 5 51 17 14 18 18 6 14 -12 -3 -23
4 -35 24 -20 34 -21 35 -48 14z"/>
<path d="M530 330 c6 -11 13 -20 16 -20 2 0 0 9 -6 20 -6 11 -13 20 -16 20 -2
0 0 -9 6 -20z"/>
<path d="M119 325 c-1 -3 -2 -9 -3 -14 0 -4 -16 -22 -33 -39 -35 -32 -42 -59
-18 -68 8 -3 17 -15 20 -25 11 -35 108 -129 132 -129 13 0 23 -4 23 -10 0 -5
10 -14 21 -21 17 -9 25 -8 37 5 10 10 12 16 5 16 -7 0 -15 -5 -18 -10 -13 -21
-25 3 -25 48 0 40 4 50 25 63 24 14 24 16 9 37 -15 22 -17 23 -36 6 -12 -12
-22 -14 -26 -8 -106 158 -110 163 -113 149z m76 -179 c29 -12 35 -20 35 -44 0
-18 -6 -32 -16 -36 -10 -4 -14 -1 -11 6 2 7 -11 28 -29 46 -48 47 -43 54 21
28z"/>
</g>
</svg>
